<?xml version="1.0" encoding="utf-8"?>
<!-- Generator: Adobe Illustrator 27.1.1, SVG Export Plug-In . SVG Version: 6.00 Build 0)  -->
<svg version="1.1" id="Capa_1" xmlns="http://www.w3.org/2000/svg" xmlns:xlink="http://www.w3.org/1999/xlink" x="0px" y="0px"
	 viewBox="0 0 835.12 94.46" style="enable-background:new 0 0 835.12 94.46;" xml:space="preserve">
<style type="text/css">
	.st0{fill:#FFFFFF;}
	.st1{fill:none;}
	.st2{fill:#1A171B;}
</style>
<g>
	<path d="M70.17,67.71l-1.03,1.86c-4.04,7.34-14.99,15.15-27.32,15.15c-17.69,0-32.08-16.62-32.08-37.03s14.39-37.03,32.08-37.03
		c12.09,0,23.22,7.71,27.01,15.16l1.56,2.61H80.9l-3.35-7.13C71.66,9.66,56.31,0.91,41.83,0.91C18.77,0.91,0,21.89,0,47.69
		c0,25.78,18.77,46.77,41.83,46.77c15.98,0,30.14-10.1,35.93-20.19l3.85-7.21h-8.93L70.17,67.71z"/>
	<path d="M128.36,1.02L127.92,0l-0.45,1.02c-1.77,0.16-3.31,1.23-4,2.8L86.64,87.66l-2.91,6.8h8.25l2.6-0.76l33.33-75.78L160.44,92
		l0.82,2.46h10.85L132.37,3.85C131.68,2.25,130.14,1.18,128.36,1.02z"/>
	<path d="M238.11,50.59c10.48-3.92,17.73-13.21,17.73-23.73c0-14.31-12.95-25.96-28.89-25.96l-36.81,0.12
		c-2.74,0-4.88,2.14-4.88,4.87l-0.12,88.56h9.75v-41.9h30.57c7.2,5.04,12.41,10.96,20.92,38.83l1.32,3.08h9.92l-1.94-6.32
		C248.99,66.66,243.96,56.88,238.11,50.59z M209.83,42.87l-14.94,0.05V10.66h32.08c10.55,0,19.12,7.27,19.12,16.21
		c0,8.79-8.52,15.95-19,15.95l-17.33,0.01L209.83,42.87z"/>
	<path d="M313.05,3.04H281.3c-1.56,0-2.74,1.18-2.74,2.75v83.81c0,1.56,1.17,2.73,2.74,2.73h31.94h0.06
		c9.44-0.78,18.17-5.42,24.58-13.07c7.19-8.57,10.71-20.12,9.65-31.43c1.06-11.58-2.45-23.14-9.65-31.7
		C331.46,8.47,322.73,3.83,313.05,3.04z M284.04,8.52h28.88c17.78,1.59,30.85,19.04,29.14,39.04l0,0.38
		c1.71,19.88-11.36,37.34-29.01,38.92h-29.01V8.52z"/>
	<path d="M420.79,63.43c0,12.92-11.88,23.43-26.47,23.43c-14.6,0-26.47-10.51-26.47-23.42l0.12-57.38l0.29-2.88h-5.88v60.26
		c0,15.94,14.33,28.9,31.94,28.9c17.61,0,31.94-12.96,31.94-28.89l0.12-57.38l0.29-2.88h-5.88V63.43z"/>
	<path d="M492.92,49.61c11.42-2.74,19.68-12.06,19.68-22.75c0-13.13-11.99-23.83-26.74-23.83l-36.82,0.13
		c-1.56,0-2.74,1.18-2.74,2.73l-0.12,86.42h5.47v-41.9h33.38c7.86,5.39,13.37,11.12,22.22,40.13l0.76,1.78h5.62l-1.09-3.55
		C505.01,64.59,499.72,55.59,492.92,49.61z M476.42,44.98l-24.77,0.09V8.52h34.22c11.72,0,21.26,8.23,21.26,18.34
		c0,9.98-9.48,18.09-21.14,18.09l-9.6,0.01L476.42,44.98z"/>
	<path d="M556.9,4.68L520.07,88.5l-1.65,3.82h6.08l34.88-79.72l34.29,77.96l0.59,1.76h6.07L561.88,4.7
		C561.05,2.79,557.69,2.83,556.9,4.68z"/>
	<path d="M672.08,81.14L616.19,4.17c-0.48-0.68-1.26-1.07-2.12-1.07c-1.56,0-2.82,1.19-2.82,2.68v86.54h5.48v-78.1l55.88,76.99
		c0.49,0.67,1.26,1.05,2.12,1.05c1.55,0,2.82-1.2,2.82-2.67l0.13-86.56h-5.47L672.08,81.14z"/>
	<polygon points="689.97,8.52 721.85,8.52 721.85,92.33 727.32,92.33 727.32,8.52 758.94,8.52 758.94,3.04 689.97,3.04 	"/>
	<path d="M835.12,8.52V3.04h-61.15c-1.56,0-2.74,1.18-2.74,2.75v83.81c0,1.56,1.18,2.73,2.74,2.73h61.15v-5.46h-58.41V50.42h42.8
		v-5.47h-42.8V8.52H835.12z"/>
</g>
</svg>
